<svg width="14" height="6" viewBox="0 0 14 6" fill="none" xmlns="http://www.w3.org/2000/svg">
    <path fill-rule="evenodd" clip-rule="evenodd" d="M13.4167 5.33334C13.262 5.33334 13.1136 5.27187 13.0042 5.16247C12.8948 5.05308 12.8333 4.90471 12.8333 4.75V3.58334H11.6667V4.16667C11.6667 4.32138 11.6052 4.46974 11.4958 4.57914C11.3864 4.68854 11.238 4.75 11.0833 4.75C10.9286 4.75 10.7802 4.68854 10.6708 4.57914C10.5614 4.46974 10.5 4.32138 10.5 4.16667V3.58334H5.77502C5.63046 4.29153 5.22804 4.92081 4.64588 5.3492C4.06371 5.77758 3.34328 5.97454 2.62415 5.90189C1.90501 5.82925 1.23846 5.49217 0.753736 4.95601C0.269007 4.41984 0.000572205 3.7228 0.000572205 3C0.000572205 2.27721 0.269007 1.58016 0.753736 1.044C1.23846 0.507836 1.90501 0.170759 2.62415 0.0981121C3.34328 0.0254648 4.06371 0.222424 4.64588 0.650808C5.22804 1.07919 5.63046 1.70848 5.77502 2.41667H13.4167C13.5714 2.41667 13.7198 2.47814 13.8292 2.58753C13.9386 2.69693 14 2.84529 14 3V4.75C14 4.90471 13.9386 5.05308 13.8292 5.16247C13.7198 5.27187 13.5714 5.33334 13.4167 5.33334ZM2.91667 1.25C2.57055 1.25 2.23219 1.35264 1.9444 1.54493C1.65661 1.73722 1.43235 2.01054 1.2999 2.33031C1.16745 2.65008 1.13276 3.00194 1.20028 3.34141C1.2678 3.68088 1.43448 3.99269 1.67922 4.23743C1.92396 4.48217 2.23576 4.64885 2.57523 4.71638C2.9147 4.7839 3.26661 4.74924 3.58638 4.61679C3.90615 4.48434 4.17943 4.26004 4.37173 3.97225C4.56402 3.68447 4.66667 3.34612 4.66667 3C4.66667 2.53587 4.48231 2.09076 4.15412 1.76257C3.82593 1.43439 3.3808 1.25 2.91667 1.25Z" fill="white"/>
</svg>
